<svg width="500" height="500" viewBox="0 0 500 500" fill="none" xmlns="http://www.w3.org/2000/svg">
<path d="M181.549 53V77.6396H194.213V126.435H205.904V175.713H219.056V126.435H231.233V101.796H244.386V89.2344H280.432V101.796H293.584V126.435H342.782V113.874H354.96V101.796H391.98V187.791H404.646V274.27H391.98V286.348H379.803V298.908H391.98V323.064H404.646V348.187H416.823V372.343H429.001V396.981H416.823V409.06H391.98V396.981H368.112V384.904H355.934V372.343H342.782V360.265H305.762V372.343H268.741V396.981H256.076V434.183H243.898V446.743H206.878V434.183H194.213V360.265H181.549V348.187H157.192V335.626H144.528V348.187H131.863V372.343H120.173V396.981H107.021V410.026H81.6904V396.981H70V335.626H81.6904V298.908H95.3301V250.113H107.021V224.508H119.686V200.352H131.863V188.274H144.528L145.015 53H181.549ZM292.599 187.773V225.49H306.264V187.773H292.599ZM354.462 187.773V225.49H368.127V187.773H354.462Z" fill="url(#paint0_linear_57_77)"/>
<defs>
<linearGradient id="paint0_linear_57_77" x1="249.5" y1="53" x2="249.5" y2="446.743" gradientUnits="userSpaceOnUse">
<stop stop-color="#4E81C4"/>
<stop offset="1" stop-color="#356EBE"/>
</linearGradient>
</defs>
</svg>
