<svg width="62" height="69" viewBox="0 0 62 69" fill="none" xmlns="http://www.w3.org/2000/svg">
<path d="M19.2646 0V4.27441H21.4521V12.7402H23.4707V21.2891H25.7422V12.7402H27.8457V8.46484H30.1162V6.28613H36.3418V8.46484H38.6133V12.7402H47.1094V10.5605H49.2129V8.46484H55.6064V23.3848H57.7939V38.3887H55.6064V40.4834H53.5029V42.6631H55.6064V46.8535H57.7939V51.2119H59.8965V55.4033H62V59.6777H59.8965V61.7734H55.6064V59.6777H51.4844V57.582H49.3809V55.4033H47.1094V53.3076H40.7168V55.4033H34.3232V59.6777H32.1357V66.1318H30.0322V68.3115H23.6387V66.1318H21.4521V53.3076H19.2646V51.2119H15.0586V49.0332H12.8711V51.2119H10.6836V55.4033H8.66504V59.6777H6.39355V61.9414H2.01855V59.6777H0V49.0332H2.01855V42.6631H4.37402V34.1973H6.39355V29.7549H8.58105V25.5645H10.6836V23.4688H12.8711L12.9551 0H19.2646ZM38.0293 22.9688V30.3389H41.2168V22.9688H38.0293ZM48.7129 22.9688V30.3389H51.9004V22.9688H48.7129Z" fill="black"/>
</svg>
